<?xml version="1.0" encoding="utf-8"?>
<!-- Generator: Adobe Illustrator 24.2.3, SVG Export Plug-In . SVG Version: 6.00 Build 0)  -->
<svg version="1.1" xmlns="http://www.w3.org/2000/svg" xmlns:xlink="http://www.w3.org/1999/xlink" x="0px" y="0px"
	 viewBox="0 0 198 24.1" style="enable-background:new 0 0 198 24.1;" xml:space="preserve">
<style type="text/css">
	.st0{display:none;}
	.st1{display:inline;fill:#99B814;}
	.st2{display:inline;fill:#F6F7F6;}
	.st3{display:inline;fill:#FBFBFB;}
	.st4{display:inline;fill:#FAFBFA;}
	.st5{fill:#99B815;}
</style>
<g id="Capa_1" class="st0">
	<path class="st1" d="M397.6,5.5c0.5,3.5,2.8,3.5,5.3,3.4c3.1-0.1,6.3,0,9.4,0.1c2.4,0.1,3.4,1.4,3.3,3.8c-0.4,5.8-4.5,9.8-10.4,9.9
		c-4.2,0.1-8.5,0-12.7,0c-2,0-4-0.1-4.7-2.5c-0.4-1.5-0.2-3.5,0.9-4c2.1-0.9,4.4-0.8,6.5,0.2c3.8,2,7.8,0.7,11.6,0.8
		c0.8,0,1-1.3,1.1-2.1c0.1-1.3-1.1-1-1.9-1c-3.8,0-7.5,0-11.3,0c-3.4-0.1-4.5-1.7-3.7-4.9c1.8-6.8,4.4-8.8,11.5-8.8
		c4.2,0,8.5-0.1,12.7,0.2c3.2,0.2,4.9,3.9,2.7,6.1c-1.7,1.4-4.1,1.6-6,0.5c-2.4-2-4.8-1.1-7.2-1.3S400,5.5,397.6,5.5z"/>
	<path class="st1" d="M253.5,13.5c-9.1,5.6-11.4,5.4-13-0.9c-1.4,1.3-1.6,3-2.1,4.5c-2.2,5.8-2.2,5.8-8.9,5.1
		c1.5-4.2,3-8.3,4.5-12.4c0.8-2.1,2-4.2,2.4-6.4c0.6-3.8,3.2-3.2,5.9-3.4c3-0.2,2.8,2,3.2,3.8c0.6,2.3,1.1,4.7,1.8,7.2
		c3-2.9,6.2-5.4,8.8-8.4c2.1-2.5,4.6-2.7,7.5-2.6c1.6,0.1,1.9,0.7,1.4,2c-2.3,6.3-4.5,12.7-7,18.9c-1.3,3.2-4.3,1.5-6.3,1.3
		s-0.2-2.1,0-3.1C252.1,17.3,252.8,15.4,253.5,13.5z"/>
	<path class="st1" d="M376.5,15.8l4.2,6.5c-4.5,1.1-7.8,0.4-9.6-4s-5.9-1.7-9.1-2.5c2.9,2.3,0.9,4.6-0.3,6.1
		c-1.4,1.8-4.1,0.8-6.1,0.6c-1-0.1-0.3-1.2-0.1-1.8c2.2-6.2,4.5-12.4,6.7-18.7c0.5-1.6,1.5-1.9,3-1.9c5.8,0.1,11.6,0,17.4,0
		c4.6,0.1,5.8,1.8,4.3,6.3C385.3,11.3,383.5,16,376.5,15.8z"/>
	<path class="st1" d="M335.8,22.6c-2.7,0-5.3,0.1-8,0c-3-0.1-4.2-2-3.3-4.7c1.5-4.6,3.1-9.1,5.1-13.5c1.2-2.6,3.9-4.3,6.7-4.1
		c5-0.1,9.9-0.2,14.9,0c3.6,0.1,4.9,1.8,3.8,5.3c-1.3,4.2-2.9,8.4-4.7,12.5c-1.2,2.8-3.9,4.6-6.9,4.6
		C340.9,22.7,338.3,22.6,335.8,22.6L335.8,22.6z"/>
	<path class="st1" d="M276.4,22.7c-2.5,0-5.1,0.1-7.6,0c-3.3-0.2-4.6-2-3.5-5.1c1.4-4.1,2.9-8.1,4.5-12.1c1.1-3.1,4-5.1,7.2-5.1
		c5-0.1,9.9-0.2,14.8,0c3.8,0.1,5,1.8,3.8,5.4c-1.3,3.8-2.7,7.7-4.2,11.4c-1.1,3.3-4.3,5.5-7.8,5.5
		C281.3,22.7,278.8,22.6,276.4,22.7L276.4,22.7z"/>
	<path class="st1" d="M54.6,17.2c0.9,0,1.7,0.1,2.4,0.1c10.2,0.1,10.1,0.1,13.2-9.6c0.5-1.7,0.4-2.3-1.6-2.3c-5.4,0.1-10.8,0-16.6,0
		c1.5-3.5,3.8-5.1,7-5.2c5.1-0.1,10.2-0.2,15.3,0c3.6,0.1,4.7,1.9,3.6,5.3c-1.3,3.9-2.7,7.8-4.3,11.6c-1.1,3.3-4.3,5.6-7.8,5.5
		c-4.8,0.1-9.7,0.1-14.5,0c-3.7-0.2-4.9-2-3.7-5.6c0.8-2.5,1.9-5,2.7-7.5c0.6-1.8,1.3-3,3.6-2.4s3,2,2.6,4.1S55.2,15.2,54.6,17.2z"
		/>
	<path class="st1" d="M89.2,22.7c-3,0-6-0.1-9,0c-1.8,0-2.4-0.5-1.7-2.3c2.3-6.2,4.6-12.4,6.8-18.6c0.2-1.1,1.2-1.7,2.3-1.6
		c6.2,0,12.3-0.1,18.5,0.1c3.7,0.1,5,1.8,3.8,5.5c-1.3,4-2.8,7.9-4.3,11.8c-1.1,3.1-4,5.1-7.3,5c-3,0.1-6,0-9,0L89.2,22.7z"/>
	<path class="st1" d="M131.7,16l3.8,6.2c-6,1.3-6.6,1.4-9.1-3.6c-2.3-4.5-6-2.1-10.2-3.1c3.4,2.3,1.9,4.4,0.9,5.9
		c-1.7,2.6-4.5,1-7.3,1.1c2.6-7.1,5.1-13.8,7.5-20.6c0.5-1.5,1.5-1.6,2.8-1.6c6,0,12.1-0.1,18.1,0c3.7,0.1,4.9,1.6,3.9,5.1
		C140.3,11.9,138.6,15.5,131.7,16z"/>
	<path class="st1" d="M24.2,5.5c3.1,2,1.3,3.7,0.8,5.3c-2.3,6.5-2.3,6.5,4.5,6.5c2.6,0,5.3,0.7,6.8-2.9c0.6-1.4,4.1-1,5.7-0.2
		c1.6,0.8-0.1,2.6-0.6,3.7c-1.2,2.8-3.8,4.6-6.8,4.6c-5.1,0.1-10.2,0.2-15.2,0c-3.5-0.1-4.7-2-3.6-5.4c1.3-4.1,2.8-8.2,4.5-12.2
		c1.2-3,4.2-5,7.5-4.8c4.7,0,9.4,0,14.2,0c1.8,0,3.8,0,4.3,2.4c0.6,2,0,4.2-1.4,5.8c-1.5,1.4-3.9,0.5-5.9,0.5
		c-0.2,0-0.6-0.6-0.6-0.7c1.7-3.9-1.6-2.4-3-2.5C32,5.4,28.6,5.5,24.2,5.5z"/>
	<path class="st1" d="M-2.9,5.6C-2.1,8.7,0,9.2,2.7,8.9c1.3-0.2,2.7-0.2,4,0c1,0.1,3-0.9,2.9,0.8S9.4,14.1,6.3,14
		C2.2,13.9-1.8,14-6,14c0.7,3.1,2.6,3.6,5.1,3.4c2.7-0.2,5.3-0.2,8,0c1,0,2.9-0.9,2.7,1.1c-0.2,1.5-0.1,4.1-2.6,4.1
		c-5.6,0.1-11.1,0.1-16.7-0.1c-2.8-0.1-3.7-2.2-2.9-4.7c1.4-4.3,3-8.6,4.8-12.8c1.4-3.3,4.2-4.8,7.8-4.8c4.4,0,8.7-0.1,13,0
		c1,0,3.1-0.8,2.8,0.9c-0.2,1.7,0,4.4-3.1,4.4H-0.7C-1.4,5.5-2.1,5.6-2.9,5.6z"/>
	<path class="st1" d="M195.5,5.7c0.8,3,2.9,3.6,5.6,3.3c1.3-0.2,2.7-0.2,4,0c1,0.1,3-0.9,2.9,0.9s-0.2,4.3-3.3,4.2
		c-4.1-0.1-8.1,0-12.3,0c0.8,3.1,2.6,3.6,5.2,3.4c2.7-0.2,5.3-0.2,8,0c1,0,2.9-0.9,2.7,1.1c-0.2,1.5-0.1,4.1-2.6,4.1
		c-5.6,0.1-11.1,0.1-16.7-0.1c-2.8-0.1-3.7-2.2-2.9-4.6c1.5-4.3,3-8.6,4.8-12.8c1.4-3.3,4.2-4.8,7.8-4.8c4.4,0,8.7-0.1,13.1,0
		c1,0,3-0.8,2.8,0.9s0,4.4-3.1,4.4c-4.6,0-9.2,0-13.8,0C197,5.5,196.2,5.6,195.5,5.7z"/>
	<path class="st1" d="M188.7,0.5c-5.9,7.2-11.6,14-17.3,20.9c-2,2.4-4.8,1.3-7.1,1.1c-1.9-0.2-1-2.4-1.2-3.7
		c-0.7-5.3-1.1-10.6-1.7-15.8c-0.2-1.5-0.6-3.2,1.8-2.7c1.8,0.4,4.9-1.8,5.2,2.3c0.3,3.9,0.8,7.8,1.3,12.5c3.4-4.1,6.5-7.3,9-10.9
		S184-0.5,188.7,0.5z"/>
	<path class="st1" d="M300.6,5.5c0.3-4,1.8-5.7,5.8-5.4c5.5,0.4,11.1,0,16.7,0.2c1,0,3.2-1,2.9,1.3c-0.2,1.6-0.2,4.1-3.1,4
		s-5.8,0-9.1,0c0.8,1.2,1.5,2,0.9,3.5c-1.6,3.7-2.8,7.7-4.3,11.5c-0.7,1.8-5.6,3.2-7.1,2c-1-0.8,0-1.6,0.2-2.2
		c1.4-4.1,2.8-8.2,4.5-12.2c0.9-2.1,0.6-2.8-1.8-2.6C304.4,5.6,302.6,5.5,300.6,5.5z"/>
	<path class="st1" d="M156.6,0.4c-2.6,7-5.1,14-7.6,21c-0.6,1.6-1.7,1.4-2.9,1.4h-4.5l5.6-15.6l0.7-2C149.9-0.4,149.9-0.4,156.6,0.4
		z"/>
	<path class="st2" d="M365.8,5.5c4.2,0,7.9-0.1,11.5,0.1c0.9,0,2.7-0.8,2.5,0.9s0,4-2.5,4.1c-3,0.2-6,0-9,0.1c-1.3,0-2-0.4-1.3-1.6
		S367,6.8,365.8,5.5z"/>
	<path class="st3" d="M332,17.4c-0.1-4.1,3.9-7.3,2.2-11.6H348c-1.3,3.6-2.6,6.9-3.8,10.3c-0.2,0.8-1,1.4-1.8,1.3H332z"/>
	<path class="st4" d="M274,5.5c4.6,0,8.5,0.1,12.4,0c1.8,0,2.6,0.3,1.7,2.2c-0.1,0.3-0.3,0.7-0.4,1c-3.3,9.2-3.3,9.1-13,8.7
		c-1.9-0.1-2.4-0.5-1.6-2.2s1.3-3.6,2.1-5.4C275.6,8.3,276.2,6.9,274,5.5z"/>
	<path class="st4" d="M88.9,5.5h12.2c0.5,0,0.9,0.1,1.9,0.2c-1.3,3.5-2.5,6.8-3.7,10.2c-0.2,1-1.1,1.6-2.1,1.5c-3.4,0-6.7,0-10.1,0
		C86.7,13.2,91.2,10,88.9,5.5z"/>
	<path class="st2" d="M121.2,5.5c3.6,0,7.3-0.1,10.9,0.1c0.9,0,2.9-0.9,2.6,1.1c-0.3,1.5-0.1,3.9-2.8,3.9c-3.4,0-6.8,0-10.1,0
		C120.9,9,124.3,7,121.2,5.5z"/>
</g>
<g id="Capa_2">
	<g>
		<path class="st5" d="M9.5,3h12.9v2.5H12v11.7h10.5v2.5H9.5V3z M13.4,9.8h9v2.5h-9V9.8z"/>
		<path class="st5" d="M25.1,11.9c0-0.8,0.2-1.5,0.6-2.2s0.9-1.2,1.6-1.6c0.7-0.4,1.4-0.6,2.3-0.6h6.8V10h-6.8c-0.6,0-1,0.2-1.4,0.6
			s-0.6,0.8-0.6,1.4v3.3c0,0.5,0.2,1,0.6,1.4s0.9,0.6,1.4,0.6h6.8v2.5h-6.8c-0.8,0-1.6-0.2-2.3-0.6s-1.2-0.9-1.6-1.6
			s-0.6-1.4-0.6-2.2V11.9z"/>
		<path class="st5" d="M39,11.9c0-0.8,0.2-1.5,0.6-2.2s0.9-1.2,1.6-1.6c0.7-0.4,1.4-0.6,2.2-0.6H46c0.8,0,1.5,0.2,2.2,0.6
			c0.7,0.4,1.2,0.9,1.6,1.6s0.6,1.4,0.6,2.2v3.4c0,0.8-0.2,1.5-0.6,2.2s-0.9,1.2-1.6,1.6s-1.4,0.6-2.2,0.6h-2.6
			c-0.8,0-1.5-0.2-2.2-0.6s-1.2-0.9-1.6-1.6S39,16.1,39,15.3V11.9z M41.5,15.2c0,0.5,0.2,1,0.6,1.4s0.8,0.6,1.3,0.6H46
			c0.5,0,1-0.2,1.4-0.6s0.6-0.8,0.6-1.4v-3.3c0-0.5-0.2-1-0.6-1.4S46.6,10,46,10h-2.6c-0.5,0-1,0.2-1.3,0.6s-0.6,0.8-0.6,1.4V15.2z"
			/>
		<path class="st5" d="M53.4,3h8.9c0.9,0,1.7,0.2,2.4,0.6s1.3,1,1.7,1.7s0.6,1.5,0.6,2.4V15c0,0.9-0.2,1.6-0.6,2.3s-1,1.3-1.7,1.7
			s-1.5,0.6-2.4,0.6h-8.9V3z M62.2,17.2c0.6,0,1.2-0.2,1.6-0.6s0.7-0.9,0.7-1.6V7.7c0-0.6-0.2-1.1-0.7-1.6s-1-0.7-1.6-0.7h-6.4v11.7
			H62.2z"/>
		<path class="st5" d="M69.7,10.9c0-0.6,0.2-1.2,0.5-1.7s0.7-0.9,1.3-1.2c0.5-0.3,1.1-0.5,1.8-0.5h2.7V10h-2.7
			c-0.3,0-0.5,0.1-0.7,0.3s-0.3,0.4-0.3,0.7v8.7h-2.5V10.9z"/>
		<path class="st5" d="M77.9,4.2c0-0.4,0.1-0.8,0.4-1.1s0.7-0.4,1.1-0.4s0.8,0.1,1.1,0.4s0.4,0.7,0.4,1.1S80.8,5,80.5,5.3
			s-0.7,0.4-1.1,0.4s-0.8-0.1-1.1-0.4S77.9,4.6,77.9,4.2z M78.2,7.5h2.5v12.1h-2.5V7.5z"/>
		<path class="st5" d="M85.1,7.5l3.2,8.6l3.2-8.6h2.6l-4.6,12.1h-2.4L82.5,7.5H85.1z"/>
		<path class="st5" d="M95.8,10c0-0.7,0.3-1.3,0.8-1.8s1.1-0.7,1.8-0.7h5.1c0.6,0,1.2,0.2,1.8,0.5c0.5,0.3,0.9,0.7,1.3,1.3
			s0.5,1.1,0.5,1.8v0.3c0,0.6-0.2,1.2-0.5,1.8s-0.7,0.9-1.3,1.3s-1.1,0.5-1.8,0.5h-3.8v-2.5h3.8c0.3,0,0.5-0.1,0.7-0.3
			s0.3-0.4,0.3-0.7V11c0-0.3-0.1-0.5-0.3-0.8s-0.4-0.3-0.7-0.3h-5.2v6.2c0,0.3,0.1,0.5,0.3,0.7s0.4,0.3,0.7,0.3h6.9v2.5h-6.9
			c-0.6,0-1.2-0.2-1.7-0.5s-0.9-0.7-1.2-1.2s-0.5-1.1-0.5-1.7V10z"/>
		<path class="st5" d="M117,3h2.3l5.4,6.6L130,3h2.3v16.7h-2.5V7.2l-4.1,5h-2.1l-4.1-5v12.5H117V3z"/>
		<path class="st5" d="M135.2,11.9c0-0.8,0.2-1.5,0.6-2.2s0.9-1.2,1.6-1.6c0.7-0.4,1.4-0.6,2.2-0.6h2.6c0.8,0,1.5,0.2,2.2,0.6
			c0.7,0.4,1.2,0.9,1.6,1.6s0.6,1.4,0.6,2.2v3.4c0,0.8-0.2,1.5-0.6,2.2s-0.9,1.2-1.6,1.6s-1.4,0.6-2.2,0.6h-2.6
			c-0.8,0-1.5-0.2-2.2-0.6s-1.2-0.9-1.6-1.6s-0.6-1.4-0.6-2.2V11.9z M137.6,15.2c0,0.5,0.2,1,0.6,1.4s0.8,0.6,1.3,0.6h2.6
			c0.5,0,1-0.2,1.4-0.6s0.6-0.8,0.6-1.4v-3.3c0-0.5-0.2-1-0.6-1.4s-0.8-0.6-1.4-0.6h-2.6c-0.5,0-1,0.2-1.3,0.6s-0.6,0.8-0.6,1.4
			V15.2z"/>
		<path class="st5" d="M148.7,7.5h1.6V3h2.5v4.5h3.7V10h-3.7v6.2c0,0.3,0.1,0.5,0.3,0.7s0.5,0.3,0.7,0.3h2.7v2.5h-2.7
			c-0.6,0-1.2-0.2-1.8-0.5s-0.9-0.7-1.3-1.2s-0.5-1.1-0.5-1.7V10h-1.6V7.5z"/>
		<path class="st5" d="M158.6,11.9c0-0.8,0.2-1.5,0.6-2.2s0.9-1.2,1.6-1.6c0.7-0.4,1.4-0.6,2.2-0.6h2.6c0.8,0,1.5,0.2,2.2,0.6
			c0.7,0.4,1.2,0.9,1.6,1.6s0.6,1.4,0.6,2.2v3.4c0,0.8-0.2,1.5-0.6,2.2s-0.9,1.2-1.6,1.6s-1.4,0.6-2.2,0.6H163
			c-0.8,0-1.5-0.2-2.2-0.6s-1.2-0.9-1.6-1.6s-0.6-1.4-0.6-2.2V11.9z M161.1,15.2c0,0.5,0.2,1,0.6,1.4s0.8,0.6,1.3,0.6h2.6
			c0.5,0,1-0.2,1.4-0.6s0.6-0.8,0.6-1.4v-3.3c0-0.5-0.2-1-0.6-1.4s-0.8-0.6-1.4-0.6H163c-0.5,0-1,0.2-1.3,0.6s-0.6,0.8-0.6,1.4V15.2
			z"/>
		<path class="st5" d="M172.7,10.9c0-0.6,0.2-1.2,0.5-1.7s0.7-0.9,1.3-1.2c0.5-0.3,1.1-0.5,1.8-0.5h2.7V10h-2.7
			c-0.3,0-0.5,0.1-0.7,0.3s-0.3,0.4-0.3,0.7v8.7h-2.5V10.9z"/>
		<path class="st5" d="M181,10.9c0-0.6,0.2-1.2,0.5-1.7s0.7-0.9,1.3-1.2c0.5-0.3,1.1-0.5,1.8-0.5h7.1V10h-7.1
			c-0.3,0-0.5,0.1-0.7,0.3s-0.3,0.4-0.3,0.7v0.3c0,0.3,0.1,0.5,0.3,0.7s0.4,0.3,0.7,0.3h4.4c0.6,0,1.2,0.2,1.8,0.5s0.9,0.7,1.3,1.2
			s0.5,1.1,0.5,1.7v0.6c0,0.6-0.2,1.2-0.5,1.7s-0.7,0.9-1.3,1.2s-1.1,0.5-1.8,0.5h-7.4v-2.5h7.4c0.3,0,0.5-0.1,0.7-0.3
			s0.3-0.4,0.3-0.7v-0.6c0-0.3-0.1-0.5-0.3-0.7s-0.4-0.3-0.7-0.3h-4.4c-0.6,0-1.2-0.2-1.8-0.5s-0.9-0.7-1.3-1.2s-0.5-1.1-0.5-1.7
			V10.9z"/>
	</g>
</g>
<g id="Capa_3">
</g>
</svg>
